Coordinates
version=1
nRows=6
nColumns=36
inDegrees=yes

Units are S.I. units (second, meters, Newtons, ...)
If the header above contains a line with 'inDegrees', this indicates whether rotational values are in degrees (yes) or radians (no).

endheader
time	pelvis_tilt	pelvis_list	pelvis_rotation	pelvis_tx	pelvis_ty	pelvis_tz	hip_flexion_r	hip_adduction_r	hip_rotation_r	knee_angle_r	knee_angle_r_beta	ankle_angle_r	subtalar_angle_r	mtp_angle_r	hip_flexion_l	hip_adduction_l	hip_rotation_l	knee_angle_l	knee_angle_l_beta	ankle_angle_l	subtalar_angle_l	mtp_angle_l	lumbar_extension	lumbar_bending	lumbar_rotation	arm_flex_r	arm_add_r	arm_rot_r	elbow_flex_r	pro_sup_r	arm_flex_l	arm_add_l	arm_rot_l	elbow_flex_l	pro_sup_l
      1.30000000	     -8.19707418	      4.31606256	      5.00229930	     -0.46634131	      1.25849480	     -0.60411854	     21.63122234	     -9.33570531	    -19.85817445	      2.31547776	      0.04041271	    -33.92378945	      8.04454074	     -6.79731703	     21.95812982	     -0.05833662	     -9.50705684	      8.60591489	      0.15020155	    -21.01374684	     -0.60292405	     -6.79731703	    -16.06690320	     -2.42023663	      0.79107154	    -38.48396346	    -39.27202802	    -79.47908477	    148.84058651	     87.75569639	     10.48826251	    -38.38143130	    -21.96341927	    138.02885567	     90.83282556
      1.31000000	     -8.00128523	      4.55702836	      5.07239835	     -0.45370598	      1.23782869	     -0.60540281	     21.74792651	     -9.85954912	    -20.47850166	      1.77794061	      0.03103092	    -34.67288182	      9.18001751	     -6.91382534	     22.25890985	      0.09598747	     -9.95285938	      7.76684063	      0.13555694	    -22.46840572	      1.00958719	     -6.91382534	    -16.30282814	     -2.49611377	     -0.14893383	    -40.29166034	    -38.77475075	    -78.83929091	    149.09530130	     91.96029055	      4.53754181	    -38.70076134	    -26.49730670	    140.63289279	     90.14790570
      1.32000000	     -7.78304824	      4.82990721	      5.15842262	     -0.44136072	      1.21620898	     -0.60666544	     21.95841239	    -10.46359508	    -20.86167346	      1.62710495	      0.02839834	    -35.27813739	      9.90957278	     -7.01771959	     22.69356703	      0.26041859	    -10.32528232	      7.30698028	      0.12753086	    -23.78874128	      2.80979793	     -7.01771959	    -16.58636405	     -2.64397830	     -0.80442063	    -42.17888335	    -37.81044805	    -78.43765474	    149.32535593	     95.17829462	     -0.94850568	    -38.48097100	    -30.44569002	    142.90586450	     89.96066526
      1.33000000	     -7.54357523	      5.11060786	      5.29107304	     -0.42944038	      1.19375052	     -0.60789476	     22.26204619	    -11.12204115	    -20.88828743	      1.89504115	      0.03307471	    -35.86276701	      9.81035785	     -7.08901534	     23.32709234	      0.42066919	    -10.55053952	      7.42186770	      0.12953603	    -24.52873679	      4.81713439	     -7.08901534	    -16.95138552	     -2.84937711	     -1.51218842	    -43.55534503	    -36.68179308	    -77.49943216	    149.47412378	     98.58544202	     -6.35315638	    -37.74323707	    -34.32803395	    145.07496432	     90.45773708
      1.34000000	     -7.26934573	      5.37269274	      5.40736818	     -0.41804050	      1.17048872	     -0.60897911	     22.69300276	    -11.78518126	    -20.42317578	      2.73918867	      0.04780786	    -36.32199127	      8.83382043	     -7.13945972	     24.20999015	      0.50319636	    -10.74863792	      8.30026167	      0.14486690	    -24.33133298	      7.06394103	     -7.13945972	    -17.41097357	     -3.09243948	     -2.11196150	    -44.42293211	    -35.33254059	    -75.96392919	    149.57137369	    101.86425602	    -11.34135761	    -36.47865733	    -37.57923781	    146.95862994	     91.57228159
      1.35000000	     -6.86793693	      5.66552058	      5.60756748	     -0.40736023	      1.14650573	     -0.61034199	     23.23780840	    -12.61951878	    -19.62918974	      4.33116051	      0.07559301	    -36.60252652	      8.05472577	     -7.16469135	     25.24393027	      0.73441849	    -10.16290878	      9.91681000	      0.17308099	    -23.88074338	      7.74901594	     -7.16469135	    -18.01156880	     -3.33837568	     -1.62500270	    -45.99506725	    -32.64278276	    -75.23504750	    149.67139936	    101.05728261	    -13.80836721	    -35.25231775	    -37.34741318	    148.13926427	     91.34811834
